<svg xmlns="http://www.w3.org/2000/svg" xmlns:xlink="http://www.w3.org/1999/xlink" width="800" zoomAndPan="magnify" viewBox="0 0 600 299.999988" height="400" preserveAspectRatio="xMidYMid meet" version="1.0"><defs><g/></defs><g fill="#31b675" fill-opacity="1"><g transform="translate(0.000012, 111.664352)"><g><path d="M 1.324219 -21.09375 C 1.324219 -15.035156 3.472656 -9.855469 7.796875 -5.558594 C 12.121094 -1.265625 17.417969 0.851562 23.683594 0.765625 C 27.417969 0.765625 30.742188 0.0898438 33.6875 -1.234375 C 34.421875 -1.589844 34.597656 -2.148438 34.214844 -2.914062 L 32.773438 -6.121094 C 32.507812 -6.738281 31.980469 -6.914062 31.214844 -6.648438 C 28.539062 -5.648438 25.917969 -5.179688 23.390625 -5.265625 C 18.917969 -5.382812 15.179688 -6.972656 12.210938 -10.003906 C 9.238281 -13.03125 7.738281 -16.710938 7.738281 -21.035156 C 7.738281 -25.417969 9.238281 -29.125 12.210938 -32.1875 C 15.179688 -35.246094 18.886719 -36.773438 23.332031 -36.804688 C 25.535156 -36.863281 27.566406 -36.597656 29.421875 -35.980469 L 30.039062 -32.066406 C 30.183594 -31.304688 30.566406 -30.921875 31.183594 -30.921875 L 33.097656 -30.921875 C 33.949219 -30.921875 34.363281 -31.332031 34.363281 -32.1875 L 34.363281 -39.71875 C 34.390625 -40.277344 34.15625 -40.660156 33.65625 -40.863281 C 30.480469 -42.128906 27.15625 -42.804688 23.652344 -42.894531 C 17.417969 -42.984375 12.121094 -40.863281 7.796875 -36.570312 C 3.472656 -32.273438 1.292969 -27.097656 1.292969 -21.035156 Z M 1.324219 -21.09375 "/></g></g></g><g fill="#31b675" fill-opacity="1"><g transform="translate(38.299568, 111.664352)"><g><path d="M 15.179688 0.792969 C 18.945312 0.792969 22.152344 -0.53125 24.800781 -3.175781 C 27.449219 -5.824219 28.773438 -9.03125 28.773438 -12.828125 C 28.773438 -16.5625 27.449219 -19.769531 24.800781 -22.417969 C 22.152344 -25.066406 18.945312 -26.390625 15.179688 -26.390625 C 11.414062 -26.390625 8.207031 -25.066406 5.558594 -22.417969 C 2.914062 -19.769531 1.589844 -16.5625 1.589844 -12.828125 C 1.589844 -9.0625 2.914062 -5.855469 5.558594 -3.207031 C 8.207031 -0.558594 11.414062 0.765625 15.179688 0.765625 Z M 15.152344 -4.796875 C 12.945312 -4.796875 11.089844 -5.589844 9.621094 -7.179688 C 8.148438 -8.765625 7.414062 -10.648438 7.414062 -12.855469 C 7.414062 -15.0625 8.148438 -16.945312 9.621094 -18.535156 C 11.089844 -20.125 12.945312 -20.917969 15.152344 -20.917969 C 17.359375 -20.917969 19.210938 -20.125 20.683594 -18.535156 C 22.152344 -16.945312 22.890625 -15.035156 22.890625 -12.828125 C 22.890625 -10.621094 22.152344 -8.707031 20.683594 -7.121094 C 19.210938 -5.53125 17.359375 -4.738281 15.152344 -4.738281 Z M 15.152344 -4.796875 "/></g></g></g><g fill="#31b675" fill-opacity="1"><g transform="translate(68.656819, 111.664352)"><g><path d="M 13.679688 -5.53125 C 11.179688 -5.53125 9.945312 -6.855469 9.945312 -9.472656 L 9.945312 -38.1875 L 9.53125 -40.921875 C 9.445312 -41.394531 9.324219 -41.71875 9.179688 -41.894531 C 9.03125 -42.070312 8.738281 -42.160156 8.296875 -42.160156 L 1.058594 -42.160156 C 0.207031 -42.160156 -0.207031 -41.746094 -0.207031 -40.894531 L -0.207031 -38.953125 C -0.207031 -38.277344 0.148438 -37.863281 0.824219 -37.746094 L 3.941406 -37.097656 L 3.941406 -9.445312 C 3.941406 -3.117188 7.207031 0.03125 13.710938 0.03125 C 14.5625 0.03125 14.976562 -0.382812 14.976562 -1.234375 L 14.976562 -4.238281 C 14.976562 -5.089844 14.5625 -5.5 13.710938 -5.5 Z M 13.679688 -5.53125 "/></g></g></g><g fill="#31b675" fill-opacity="1"><g transform="translate(85.982843, 111.664352)"><g><path d="M 15.179688 0.792969 C 18.945312 0.792969 22.152344 -0.53125 24.800781 -3.175781 C 27.449219 -5.824219 28.773438 -9.03125 28.773438 -12.828125 C 28.773438 -16.5625 27.449219 -19.769531 24.800781 -22.417969 C 22.152344 -25.066406 18.945312 -26.390625 15.179688 -26.390625 C 11.414062 -26.390625 8.207031 -25.066406 5.558594 -22.417969 C 2.914062 -19.769531 1.589844 -16.5625 1.589844 -12.828125 C 1.589844 -9.0625 2.914062 -5.855469 5.558594 -3.207031 C 8.207031 -0.558594 11.414062 0.765625 15.179688 0.765625 Z M 15.152344 -4.796875 C 12.945312 -4.796875 11.089844 -5.589844 9.621094 -7.179688 C 8.148438 -8.765625 7.414062 -10.648438 7.414062 -12.855469 C 7.414062 -15.0625 8.148438 -16.945312 9.621094 -18.535156 C 11.089844 -20.125 12.945312 -20.917969 15.152344 -20.917969 C 17.359375 -20.917969 19.210938 -20.125 20.683594 -18.535156 C 22.152344 -16.945312 22.890625 -15.035156 22.890625 -12.828125 C 22.890625 -10.621094 22.152344 -8.707031 20.683594 -7.121094 C 19.210938 -5.53125 17.359375 -4.738281 15.152344 -4.738281 Z M 15.152344 -4.796875 "/></g></g></g><g fill="#31b675" fill-opacity="1"><g transform="translate(116.340095, 111.664352)"><g><path d="M 50.984375 -4.414062 L 47.835938 -5.058594 L 47.835938 -16.503906 C 47.835938 -19.535156 46.808594 -21.949219 44.746094 -23.742188 C 42.6875 -25.535156 40.277344 -26.417969 37.539062 -26.417969 C 34.039062 -26.417969 30.832031 -25.242188 27.949219 -22.917969 C 26.066406 -25.242188 23.507812 -26.417969 20.300781 -26.417969 C 17.386719 -26.417969 14.5625 -25.300781 11.796875 -23.09375 L 11.5625 -24.359375 C 11.414062 -25.214844 10.972656 -25.625 10.238281 -25.625 L 3.5 -25.625 C 2.648438 -25.625 2.234375 -25.214844 2.234375 -24.359375 L 2.234375 -22.449219 C 2.234375 -21.769531 2.589844 -21.359375 3.265625 -21.242188 L 6.382812 -20.625 L 6.382812 -5.089844 L 3.265625 -4.441406 C 2.617188 -4.324219 2.292969 -3.914062 2.292969 -3.234375 L 2.292969 -1.292969 C 2.292969 -0.441406 2.707031 -0.03125 3.558594 -0.03125 L 15.296875 -0.03125 C 16.152344 -0.03125 16.5625 -0.441406 16.5625 -1.292969 L 16.5625 -3.234375 C 16.5625 -3.914062 16.238281 -4.324219 15.59375 -4.441406 L 12.472656 -5.089844 L 12.472656 -18.535156 C 14.355469 -20.152344 16.359375 -20.945312 18.503906 -20.945312 C 20.066406 -20.945312 21.386719 -20.417969 22.449219 -19.359375 C 23.507812 -18.300781 24.035156 -16.828125 24.035156 -14.945312 L 24.035156 -1.324219 C 24.035156 -0.472656 24.449219 -0.0585938 25.300781 -0.0585938 L 33.007812 -0.0585938 C 33.863281 -0.0585938 34.273438 -0.472656 34.273438 -1.324219 L 34.273438 -3.265625 C 34.273438 -3.941406 33.921875 -4.355469 33.246094 -4.472656 L 30.125 -5.117188 L 30.125 -16.5625 C 30.125 -17.476562 30.039062 -18.269531 29.890625 -18.917969 C 31.449219 -20.300781 33.332031 -20.976562 35.539062 -20.976562 C 37.214844 -20.976562 38.65625 -20.445312 39.894531 -19.386719 C 41.128906 -18.328125 41.746094 -16.859375 41.746094 -14.976562 L 41.746094 -1.351562 C 41.746094 -0.5 42.160156 -0.0898438 43.011719 -0.0898438 L 50.660156 -0.0898438 C 51.515625 -0.0898438 51.925781 -0.5 51.925781 -1.351562 L 51.925781 -3.296875 C 51.957031 -3.972656 51.632812 -4.382812 50.984375 -4.5 Z M 50.984375 -4.414062 "/></g></g></g><g fill="#31b675" fill-opacity="1"><g transform="translate(169.347622, 111.664352)"><g><path d="M 33.1875 -12.886719 C 33.15625 -16.738281 31.890625 -19.945312 29.421875 -22.507812 C 26.949219 -25.066406 23.832031 -26.332031 20.035156 -26.300781 C 17.476562 -26.242188 15.296875 -25.625 13.535156 -24.417969 L 13.535156 -36.304688 L 13.09375 -40.953125 C 13.0625 -41.421875 12.945312 -41.746094 12.769531 -41.921875 C 12.589844 -42.101562 12.269531 -42.1875 11.828125 -42.1875 L 4.617188 -42.1875 C 3.765625 -42.1875 3.355469 -41.777344 3.355469 -40.921875 L 3.355469 -38.980469 C 3.324219 -38.304688 3.648438 -37.894531 4.296875 -37.773438 L 7.503906 -37.128906 L 7.503906 -5.058594 L 4.382812 -4.414062 C 3.738281 -4.296875 3.414062 -3.882812 3.414062 -3.207031 L 3.414062 -1.265625 C 3.414062 -0.410156 3.824219 0 4.679688 0 L 11.296875 0 C 11.738281 0 12.0625 -0.0898438 12.238281 -0.292969 C 12.414062 -0.5 12.53125 -0.851562 12.621094 -1.351562 L 12.796875 -2.148438 C 15.121094 -0.589844 17.503906 0.265625 19.945312 0.410156 C 23.625 0.734375 26.742188 -0.382812 29.300781 -2.972656 C 31.863281 -5.558594 33.128906 -8.886719 33.097656 -12.945312 Z M 19.503906 -4.824219 C 17.210938 -4.824219 15.210938 -5.558594 13.472656 -7.003906 L 13.472656 -19.328125 C 15.0625 -20.503906 16.917969 -21.09375 19.0625 -21.09375 C 21.476562 -21.09375 23.449219 -20.300781 25.007812 -18.742188 C 26.566406 -17.179688 27.332031 -15.179688 27.332031 -12.769531 C 27.332031 -10.386719 26.597656 -8.472656 25.125 -7.003906 C 23.652344 -5.53125 21.769531 -4.796875 19.503906 -4.796875 Z M 19.503906 -4.824219 "/></g></g></g><g fill="#31b675" fill-opacity="1"><g transform="translate(204.146715, 111.664352)"><g><path d="M 9.53125 -32.363281 C 10.53125 -32.363281 11.386719 -32.714844 12.121094 -33.449219 C 12.855469 -34.1875 13.210938 -35.070312 13.210938 -36.097656 C 13.210938 -37.128906 12.855469 -38.011719 12.121094 -38.746094 C 11.386719 -39.480469 10.53125 -39.835938 9.53125 -39.835938 C 8.472656 -39.835938 7.589844 -39.453125 6.882812 -38.71875 C 6.179688 -37.980469 5.824219 -37.097656 5.824219 -36.097656 C 5.824219 -35.097656 6.179688 -34.214844 6.914062 -33.480469 C 7.648438 -32.746094 8.53125 -32.363281 9.5625 -32.363281 Z M 15.679688 -4.414062 L 12.5625 -5.058594 L 12.5625 -19.769531 L 12.152344 -24.332031 C 12.0625 -24.832031 11.945312 -25.152344 11.796875 -25.332031 C 11.648438 -25.507812 11.355469 -25.59375 10.914062 -25.59375 L 3.972656 -25.59375 C 3.117188 -25.59375 2.707031 -25.183594 2.707031 -24.332031 L 2.707031 -22.417969 C 2.707031 -21.742188 3.03125 -21.328125 3.675781 -21.210938 L 6.5 -20.652344 L 6.5 -5.058594 L 3.382812 -4.414062 C 2.734375 -4.296875 2.414062 -3.882812 2.414062 -3.207031 L 2.414062 -1.265625 C 2.414062 -0.410156 2.824219 0 3.675781 0 L 15.417969 0 C 16.269531 0 16.679688 -0.410156 16.679688 -1.265625 L 16.679688 -3.207031 C 16.679688 -3.882812 16.359375 -4.296875 15.710938 -4.414062 Z M 15.679688 -4.414062 "/></g></g></g><g fill="#31b675" fill-opacity="1"><g transform="translate(221.855112, 111.664352)"><g><path d="M 26.449219 -4.414062 L 23.269531 -5.058594 L 23.269531 -18.179688 C 23.269531 -20.566406 22.359375 -22.535156 20.535156 -24.09375 C 18.710938 -25.65625 16.179688 -26.417969 12.972656 -26.417969 C 10.328125 -26.417969 7.589844 -25.832031 4.738281 -24.625 C 4.207031 -24.390625 3.941406 -24.007812 3.941406 -23.476562 L 3.941406 -18.476562 C 3.941406 -17.621094 4.355469 -17.210938 5.207031 -17.210938 L 7.148438 -17.210938 C 7.824219 -17.179688 8.238281 -17.503906 8.355469 -18.152344 L 8.886719 -20.886719 C 10.03125 -21.269531 11.089844 -21.476562 12.0625 -21.476562 C 13.945312 -21.476562 15.355469 -21.035156 16.269531 -20.152344 C 17.179688 -19.269531 17.652344 -18.210938 17.652344 -16.976562 L 17.652344 -13.503906 C 14.445312 -14.621094 11.710938 -14.976562 9.445312 -14.59375 C 7.179688 -14.210938 5.441406 -13.328125 4.238281 -11.945312 C 3.03125 -10.5625 2.414062 -8.855469 2.414062 -6.855469 C 2.414062 -4.589844 3.175781 -2.792969 4.707031 -1.472656 C 6.238281 -0.148438 8.207031 0.53125 10.621094 0.53125 C 13.238281 0.53125 15.621094 -0.472656 17.800781 -2.472656 L 18.035156 -1.382812 C 18.300781 -0.5 18.800781 -0.0585938 19.5625 -0.0585938 L 26.125 -0.0585938 C 26.976562 -0.0585938 27.390625 -0.472656 27.390625 -1.324219 L 27.390625 -3.265625 C 27.390625 -3.941406 27.066406 -4.355469 26.417969 -4.472656 Z M 8.238281 -7.179688 C 8.238281 -8.796875 9.0625 -9.828125 10.707031 -10.269531 C 12.355469 -10.707031 14.652344 -10.328125 17.59375 -9.089844 L 17.59375 -6.207031 C 16.179688 -4.941406 14.59375 -4.265625 12.828125 -4.148438 C 11.472656 -4.03125 10.355469 -4.265625 9.503906 -4.824219 C 8.648438 -5.382812 8.207031 -6.179688 8.207031 -7.179688 Z M 8.238281 -7.179688 "/></g></g></g><g fill="#31b675" fill-opacity="1"><g transform="translate(250.388575, 111.664352)"><g><path d="M 33.628906 -4.414062 L 30.421875 -5.058594 L 30.421875 -16.503906 C 30.421875 -19.5625 29.449219 -21.976562 27.507812 -23.742188 C 25.566406 -25.507812 23.269531 -26.390625 20.625 -26.390625 C 17.476562 -26.390625 14.535156 -25.242188 11.769531 -22.949219 L 11.53125 -24.332031 C 11.414062 -25.183594 10.972656 -25.59375 10.207031 -25.59375 L 3.53125 -25.59375 C 2.675781 -25.59375 2.265625 -25.183594 2.265625 -24.332031 L 2.265625 -22.417969 C 2.265625 -21.742188 2.617188 -21.328125 3.296875 -21.210938 L 6.355469 -20.59375 L 6.355469 -5 L 3.296875 -4.414062 C 2.617188 -4.296875 2.265625 -3.882812 2.265625 -3.207031 L 2.265625 -1.265625 C 2.265625 -0.410156 2.675781 0 3.53125 0 L 15.328125 0 C 16.179688 0 16.59375 -0.410156 16.59375 -1.265625 L 16.59375 -3.207031 C 16.59375 -3.882812 16.269531 -4.296875 15.621094 -4.414062 L 12.445312 -5.058594 L 12.445312 -18.445312 C 14.445312 -20.09375 16.535156 -20.917969 18.710938 -20.917969 C 20.386719 -20.917969 21.769531 -20.386719 22.828125 -19.328125 C 23.890625 -18.269531 24.417969 -16.769531 24.417969 -14.855469 L 24.417969 -1.234375 C 24.417969 -0.382812 24.832031 0.03125 25.683594 0.03125 L 33.421875 0.03125 C 34.273438 0.03125 34.6875 -0.382812 34.6875 -1.234375 L 34.6875 -3.175781 C 34.6875 -3.855469 34.332031 -4.265625 33.65625 -4.382812 Z M 33.628906 -4.414062 "/></g></g></g><g fill="#31b675" fill-opacity="1"><g transform="translate(286.099528, 111.664352)"><g/></g></g><g fill="#31b675" fill-opacity="1"><g transform="translate(299.630861, 111.664352)"><g><path d="M 3.617188 -4.882812 C 3.648438 -4.558594 3.882812 -4.238281 4.324219 -3.914062 C 7.882812 -0.765625 12.03125 0.792969 16.769531 0.792969 C 20.625 0.792969 23.949219 -0.324219 26.714844 -2.53125 C 29.480469 -4.738281 30.863281 -7.621094 30.863281 -11.148438 C 30.863281 -13.445312 30.183594 -15.476562 28.832031 -17.269531 C 27.476562 -19.0625 25.832031 -20.503906 23.917969 -21.625 C 22.007812 -22.742188 20.066406 -23.769531 18.121094 -24.742188 C 16.179688 -25.714844 14.503906 -26.773438 13.09375 -27.917969 C 11.679688 -29.066406 10.945312 -30.332031 10.855469 -31.714844 C 10.769531 -33.214844 11.328125 -34.507812 12.503906 -35.628906 C 13.679688 -36.746094 15.445312 -37.304688 17.828125 -37.304688 C 20.125 -37.273438 22.300781 -36.714844 24.390625 -35.628906 L 25.125 -31.363281 C 25.273438 -30.597656 25.65625 -30.214844 26.273438 -30.214844 L 28.214844 -30.214844 C 29.066406 -30.214844 29.480469 -30.625 29.480469 -31.480469 L 29.480469 -38.65625 C 29.566406 -39.097656 29.273438 -39.511719 28.625 -39.863281 C 25.449219 -41.894531 21.828125 -42.925781 17.769531 -42.925781 C 13.710938 -42.925781 10.472656 -41.863281 8.0625 -39.746094 C 5.648438 -37.628906 4.472656 -34.980469 4.5 -31.832031 C 4.5 -29.566406 5.207031 -27.539062 6.621094 -25.773438 C 8.03125 -24.007812 9.707031 -22.59375 11.679688 -21.507812 C 13.652344 -20.417969 15.621094 -19.386719 17.59375 -18.417969 C 19.5625 -17.445312 21.210938 -16.328125 22.535156 -15.0625 C 23.859375 -13.796875 24.476562 -12.355469 24.390625 -10.738281 C 24.359375 -8.914062 23.59375 -7.472656 22.09375 -6.382812 C 20.59375 -5.296875 18.742188 -4.765625 16.535156 -4.765625 C 13.855469 -4.765625 11.296875 -5.679688 8.855469 -7.472656 L 7.945312 -12.238281 C 7.796875 -13.003906 7.414062 -13.386719 6.796875 -13.386719 L 4.882812 -13.386719 C 4.03125 -13.386719 3.617188 -12.972656 3.617188 -12.121094 Z M 3.617188 -4.882812 "/></g></g></g><g fill="#31b675" fill-opacity="1"><g transform="translate(333.400362, 111.664352)"><g><path d="M 15.179688 0.792969 C 18.945312 0.792969 22.152344 -0.53125 24.800781 -3.175781 C 27.449219 -5.824219 28.773438 -9.03125 28.773438 -12.828125 C 28.773438 -16.5625 27.449219 -19.769531 24.800781 -22.417969 C 22.152344 -25.066406 18.945312 -26.390625 15.179688 -26.390625 C 11.414062 -26.390625 8.207031 -25.066406 5.558594 -22.417969 C 2.914062 -19.769531 1.589844 -16.5625 1.589844 -12.828125 C 1.589844 -9.0625 2.914062 -5.855469 5.558594 -3.207031 C 8.207031 -0.558594 11.414062 0.765625 15.179688 0.765625 Z M 15.152344 -4.796875 C 12.945312 -4.796875 11.089844 -5.589844 9.621094 -7.179688 C 8.148438 -8.765625 7.414062 -10.648438 7.414062 -12.855469 C 7.414062 -15.0625 8.148438 -16.945312 9.621094 -18.535156 C 11.089844 -20.125 12.945312 -20.917969 15.152344 -20.917969 C 17.359375 -20.917969 19.210938 -20.125 20.683594 -18.535156 C 22.152344 -16.945312 22.890625 -15.035156 22.890625 -12.828125 C 22.890625 -10.621094 22.152344 -8.707031 20.683594 -7.121094 C 19.210938 -5.53125 17.359375 -4.738281 15.152344 -4.738281 Z M 15.152344 -4.796875 "/></g></g></g><g fill="#31b675" fill-opacity="1"><g transform="translate(363.757614, 111.664352)"><g><path d="M 1.558594 -12.828125 C 1.558594 -9.0625 2.882812 -5.855469 5.53125 -3.207031 C 8.179688 -0.558594 11.472656 0.765625 15.417969 0.765625 C 17.945312 0.765625 20.476562 0.0898438 23.007812 -1.292969 C 23.683594 -1.648438 23.832031 -2.207031 23.449219 -2.972656 L 22.066406 -5.324219 C 21.742188 -6 21.183594 -6.179688 20.386719 -5.824219 C 18.769531 -5.148438 17.238281 -4.796875 15.796875 -4.796875 C 13.414062 -4.796875 11.445312 -5.558594 9.855469 -7.089844 C 8.265625 -8.621094 7.472656 -10.53125 7.472656 -12.828125 C 7.472656 -15.09375 8.265625 -17.003906 9.855469 -18.5625 C 11.445312 -20.125 13.386719 -20.917969 15.679688 -20.917969 C 16.738281 -20.886719 17.800781 -20.683594 18.828125 -20.300781 L 19.359375 -17.710938 C 19.476562 -17.0625 19.886719 -16.738281 20.566406 -16.738281 L 22.507812 -16.738281 C 23.359375 -16.738281 23.769531 -17.152344 23.769531 -18.003906 L 23.769531 -23.390625 C 23.769531 -23.769531 23.535156 -24.09375 23.09375 -24.332031 C 20.683594 -25.714844 18.152344 -26.390625 15.503906 -26.390625 C 11.589844 -26.390625 8.296875 -25.066406 5.648438 -22.449219 C 3 -19.828125 1.675781 -16.621094 1.675781 -12.855469 Z M 1.558594 -12.828125 "/></g></g></g><g fill="#31b675" fill-opacity="1"><g transform="translate(389.820138, 111.664352)"><g><path d="M 9.53125 -32.363281 C 10.53125 -32.363281 11.386719 -32.714844 12.121094 -33.449219 C 12.855469 -34.1875 13.210938 -35.070312 13.210938 -36.097656 C 13.210938 -37.128906 12.855469 -38.011719 12.121094 -38.746094 C 11.386719 -39.480469 10.53125 -39.835938 9.53125 -39.835938 C 8.472656 -39.835938 7.589844 -39.453125 6.882812 -38.71875 C 6.179688 -37.980469 5.824219 -37.097656 5.824219 -36.097656 C 5.824219 -35.097656 6.179688 -34.214844 6.914062 -33.480469 C 7.648438 -32.746094 8.53125 -32.363281 9.5625 -32.363281 Z M 15.679688 -4.414062 L 12.5625 -5.058594 L 12.5625 -19.769531 L 12.152344 -24.332031 C 12.0625 -24.832031 11.945312 -25.152344 11.796875 -25.332031 C 11.648438 -25.507812 11.355469 -25.59375 10.914062 -25.59375 L 3.972656 -25.59375 C 3.117188 -25.59375 2.707031 -25.183594 2.707031 -24.332031 L 2.707031 -22.417969 C 2.707031 -21.742188 3.03125 -21.328125 3.675781 -21.210938 L 6.5 -20.652344 L 6.5 -5.058594 L 3.382812 -4.414062 C 2.734375 -4.296875 2.414062 -3.882812 2.414062 -3.207031 L 2.414062 -1.265625 C 2.414062 -0.410156 2.824219 0 3.675781 0 L 15.417969 0 C 16.269531 0 16.679688 -0.410156 16.679688 -1.265625 L 16.679688 -3.207031 C 16.679688 -3.882812 16.359375 -4.296875 15.710938 -4.414062 Z M 15.679688 -4.414062 "/></g></g></g><g fill="#31b675" fill-opacity="1"><g transform="translate(407.528535, 111.664352)"><g><path d="M 14.210938 -26.390625 C 10.589844 -26.390625 7.589844 -25.066406 5.179688 -22.449219 C 2.765625 -19.828125 1.558594 -16.621094 1.558594 -12.828125 C 1.558594 -8.972656 2.792969 -5.738281 5.265625 -3.117188 C 7.738281 -0.5 10.945312 0.824219 14.886719 0.824219 C 18.09375 0.824219 20.945312 -0.03125 23.449219 -1.707031 C 24.152344 -2.207031 24.332031 -2.765625 23.976562 -3.414062 L 22.769531 -5.882812 C 22.328125 -6.5625 21.800781 -6.707031 21.152344 -6.324219 C 18.945312 -5.179688 16.828125 -4.589844 14.828125 -4.589844 C 12.5625 -4.589844 10.769531 -5.238281 9.445312 -6.5625 C 8.121094 -7.882812 7.414062 -9.589844 7.324219 -11.679688 L 25.035156 -11.679688 C 25.890625 -11.679688 26.332031 -12.089844 26.359375 -12.945312 L 26.359375 -14.152344 C 26.273438 -17.59375 25.066406 -20.503906 22.742188 -22.859375 C 20.417969 -25.214844 17.5625 -26.390625 14.152344 -26.390625 Z M 14.210938 -21.386719 C 15.886719 -21.386719 17.328125 -20.828125 18.535156 -19.742188 C 19.742188 -18.652344 20.445312 -17.269531 20.652344 -15.59375 L 7.679688 -15.59375 C 8.003906 -17.328125 8.765625 -18.710938 9.945312 -19.769531 C 11.121094 -20.828125 12.53125 -21.359375 14.179688 -21.359375 Z M 14.210938 -21.386719 "/></g></g></g><g fill="#31b675" fill-opacity="1"><g transform="translate(435.532512, 111.664352)"><g><path d="M 21.566406 -2.234375 L 20.59375 -5.058594 C 20.359375 -5.679688 19.886719 -5.855469 19.210938 -5.589844 C 17.828125 -5.089844 16.679688 -4.824219 15.769531 -4.796875 C 14.238281 -4.796875 13.121094 -5.207031 12.445312 -6.058594 C 11.769531 -6.914062 11.414062 -7.972656 11.414062 -9.265625 L 11.414062 -20.59375 L 18.476562 -20.59375 C 19.328125 -20.59375 19.742188 -21.007812 19.742188 -21.859375 L 19.742188 -24.332031 C 19.742188 -25.183594 19.328125 -25.59375 18.476562 -25.59375 L 11.414062 -25.59375 L 11.414062 -32.363281 C 11.414062 -33.214844 11.003906 -33.628906 10.148438 -33.628906 L 6.648438 -33.628906 C 5.796875 -33.628906 5.382812 -33.214844 5.382812 -32.363281 L 5.382812 -25.59375 L 2.441406 -25.59375 C 1.589844 -25.59375 1.175781 -25.183594 1.175781 -24.332031 L 1.175781 -21.859375 C 1.175781 -21.007812 1.589844 -20.59375 2.441406 -20.59375 L 5.382812 -20.59375 L 5.382812 -7.648438 C 5.382812 -5.238281 6.121094 -3.234375 7.621094 -1.617188 C 9.121094 0 11.296875 0.792969 14.179688 0.792969 C 16.5625 0.765625 18.886719 0.207031 21.183594 -0.882812 C 21.683594 -1.148438 21.828125 -1.617188 21.59375 -2.265625 Z M 21.566406 -2.234375 "/></g></g></g><g fill="#31b675" fill-opacity="1"><g transform="translate(459.241761, 111.664352)"><g><path d="M 29.890625 -25.59375 L 19.886719 -25.59375 C 19.035156 -25.59375 18.621094 -25.183594 18.621094 -24.332031 L 18.621094 -22.417969 C 18.621094 -21.742188 18.945312 -21.328125 19.59375 -21.210938 L 21.328125 -20.859375 L 15.859375 -8.503906 L 10.296875 -20.859375 L 12.0625 -21.210938 C 12.738281 -21.328125 13.0625 -21.742188 13.0625 -22.417969 L 13.0625 -24.332031 C 13.0625 -25.183594 12.652344 -25.59375 11.796875 -25.59375 L 1.5 -25.59375 C 0.648438 -25.59375 0.234375 -25.183594 0.234375 -24.332031 L 0.234375 -22.417969 C 0.234375 -21.742188 0.558594 -21.328125 1.207031 -21.210938 L 4.265625 -20.59375 L 12.886719 -2.117188 L 8.207031 8.324219 L 4.53125 9.03125 C 3.855469 9.148438 3.5 9.5625 3.5 10.238281 L 3.5 12.179688 C 3.5 13.03125 3.914062 13.445312 4.765625 13.445312 L 16.859375 13.445312 C 17.710938 13.445312 18.121094 13.03125 18.121094 12.179688 L 18.121094 10.238281 C 18.152344 9.5625 17.828125 9.148438 17.152344 9.03125 L 13.886719 8.382812 L 27.390625 -20.652344 L 30.214844 -21.210938 C 30.863281 -21.328125 31.183594 -21.742188 31.183594 -22.417969 L 31.183594 -24.332031 C 31.183594 -25.183594 30.773438 -25.59375 29.921875 -25.59375 Z M 29.890625 -25.59375 "/></g></g></g><g fill="#31b675" fill-opacity="1"><g transform="translate(490.628605, 111.664352)"><g/></g></g><g fill="#31b675" fill-opacity="1"><g transform="translate(504.159938, 111.664352)"><g><path d="M 22.949219 -41.277344 C 20.769531 -42.394531 18.535156 -42.953125 16.210938 -42.953125 C 13.445312 -42.953125 11.296875 -42.128906 9.738281 -40.511719 C 8.179688 -38.894531 7.414062 -36.894531 7.414062 -34.507812 L 7.414062 -25.566406 L 4.472656 -25.566406 C 3.617188 -25.566406 3.207031 -25.152344 3.207031 -24.300781 L 3.207031 -21.828125 C 3.207031 -20.976562 3.617188 -20.566406 4.472656 -20.566406 L 7.414062 -20.566406 L 7.414062 -5.03125 L 4.265625 -4.382812 C 3.648438 -4.265625 3.324219 -3.855469 3.324219 -3.175781 L 3.324219 -1.234375 C 3.324219 -0.382812 3.738281 0.03125 4.589844 0.03125 L 18.0625 0.03125 C 18.917969 0.03125 19.328125 -0.382812 19.328125 -1.234375 L 19.328125 -3.175781 C 19.359375 -3.855469 19.035156 -4.265625 18.386719 -4.382812 L 13.503906 -5.089844 L 13.503906 -20.566406 L 19.476562 -20.566406 C 20.328125 -20.566406 20.742188 -20.976562 20.742188 -21.828125 L 20.742188 -24.300781 C 20.742188 -25.152344 20.328125 -25.566406 19.476562 -25.566406 L 13.503906 -25.566406 L 13.503906 -33.097656 C 13.503906 -34.273438 13.828125 -35.273438 14.503906 -36.128906 C 15.179688 -36.980469 16.210938 -37.394531 17.621094 -37.394531 C 18.5625 -37.363281 19.652344 -37.070312 20.886719 -36.539062 C 21.566406 -36.304688 22.035156 -36.480469 22.300781 -37.039062 L 23.390625 -39.863281 C 23.625 -40.511719 23.449219 -40.980469 22.890625 -41.246094 Z M 22.949219 -41.277344 "/></g></g></g><g fill="#31b675" fill-opacity="1"><g transform="translate(527.869187, 111.664352)"><g><path d="M 15.179688 0.792969 C 18.945312 0.792969 22.152344 -0.53125 24.800781 -3.175781 C 27.449219 -5.824219 28.773438 -9.03125 28.773438 -12.828125 C 28.773438 -16.5625 27.449219 -19.769531 24.800781 -22.417969 C 22.152344 -25.066406 18.945312 -26.390625 15.179688 -26.390625 C 11.414062 -26.390625 8.207031 -25.066406 5.558594 -22.417969 C 2.914062 -19.769531 1.589844 -16.5625 1.589844 -12.828125 C 1.589844 -9.0625 2.914062 -5.855469 5.558594 -3.207031 C 8.207031 -0.558594 11.414062 0.765625 15.179688 0.765625 Z M 15.152344 -4.796875 C 12.945312 -4.796875 11.089844 -5.589844 9.621094 -7.179688 C 8.148438 -8.765625 7.414062 -10.648438 7.414062 -12.855469 C 7.414062 -15.0625 8.148438 -16.945312 9.621094 -18.535156 C 11.089844 -20.125 12.945312 -20.917969 15.152344 -20.917969 C 17.359375 -20.917969 19.210938 -20.125 20.683594 -18.535156 C 22.152344 -16.945312 22.890625 -15.035156 22.890625 -12.828125 C 22.890625 -10.621094 22.152344 -8.707031 20.683594 -7.121094 C 19.210938 -5.53125 17.359375 -4.738281 15.152344 -4.738281 Z M 15.152344 -4.796875 "/></g></g></g><g fill="#31b675" fill-opacity="1"><g transform="translate(558.226439, 111.664352)"><g><path d="M 23.390625 -25.714844 C 20.945312 -26.507812 18.503906 -26.476562 16.0625 -25.625 C 14.5625 -25.066406 13.121094 -24.210938 11.738281 -23.066406 L 11.503906 -24.332031 C 11.386719 -25.183594 10.945312 -25.59375 10.179688 -25.59375 L 3.5 -25.59375 C 2.648438 -25.59375 2.234375 -25.183594 2.234375 -24.332031 L 2.234375 -22.417969 C 2.234375 -21.742188 2.589844 -21.328125 3.265625 -21.210938 L 6.382812 -20.59375 L 6.382812 -5.058594 L 3.265625 -4.414062 C 2.589844 -4.296875 2.234375 -3.882812 2.234375 -3.207031 L 2.234375 -1.265625 C 2.234375 -0.410156 2.648438 0 3.5 0 L 17.003906 0 C 17.859375 0 18.269531 -0.410156 18.269531 -1.265625 L 18.269531 -3.207031 C 18.269531 -3.882812 17.917969 -4.296875 17.238281 -4.414062 L 12.414062 -5.117188 L 12.414062 -18.269531 C 13.386719 -19.125 14.476562 -19.769531 15.679688 -20.210938 C 16.976562 -20.742188 18.300781 -20.945312 19.683594 -20.828125 L 20.152344 -18.417969 C 20.269531 -17.769531 20.683594 -17.445312 21.359375 -17.445312 L 23.300781 -17.445312 C 24.152344 -17.445312 24.566406 -17.859375 24.566406 -18.710938 L 24.566406 -24.566406 C 24.566406 -25.066406 24.183594 -25.449219 23.417969 -25.683594 Z M 23.390625 -25.714844 "/></g></g></g><g fill="#31b675" fill-opacity="1"><g transform="translate(0.000012, 193.025329)"><g><path d="M 18.503906 -37.773438 C 19.152344 -37.894531 19.476562 -38.304688 19.476562 -38.980469 L 19.476562 -40.921875 C 19.445312 -41.777344 19.003906 -42.1875 18.152344 -42.1875 L 4.296875 -42.1875 C 3.441406 -42.1875 3.03125 -41.777344 3.03125 -40.921875 L 3.03125 -38.980469 C 3.03125 -38.304688 3.355469 -37.894531 4 -37.773438 L 8.03125 -36.804688 L 8.03125 -5.355469 L 4 -4.414062 C 3.355469 -4.296875 3.03125 -3.882812 3.03125 -3.207031 L 3.03125 -1.265625 C 3.03125 -0.410156 3.441406 0 4.296875 0 L 18.152344 0 C 19.003906 0 19.445312 -0.410156 19.445312 -1.265625 L 19.445312 -3.207031 C 19.445312 -3.882812 19.125 -4.296875 18.476562 -4.414062 L 14.503906 -5.355469 L 14.503906 -36.804688 Z M 18.503906 -37.773438 "/></g></g></g><g fill="#31b675" fill-opacity="1"><g transform="translate(22.503242, 193.025329)"><g><path d="M 33.628906 -4.414062 L 30.421875 -5.058594 L 30.421875 -16.503906 C 30.421875 -19.5625 29.449219 -21.976562 27.507812 -23.742188 C 25.566406 -25.507812 23.269531 -26.390625 20.625 -26.390625 C 17.476562 -26.390625 14.535156 -25.242188 11.769531 -22.949219 L 11.53125 -24.332031 C 11.414062 -25.183594 10.972656 -25.59375 10.207031 -25.59375 L 3.53125 -25.59375 C 2.675781 -25.59375 2.265625 -25.183594 2.265625 -24.332031 L 2.265625 -22.417969 C 2.265625 -21.742188 2.617188 -21.328125 3.296875 -21.210938 L 6.355469 -20.59375 L 6.355469 -5 L 3.296875 -4.414062 C 2.617188 -4.296875 2.265625 -3.882812 2.265625 -3.207031 L 2.265625 -1.265625 C 2.265625 -0.410156 2.675781 0 3.53125 0 L 15.328125 0 C 16.179688 0 16.59375 -0.410156 16.59375 -1.265625 L 16.59375 -3.207031 C 16.59375 -3.882812 16.269531 -4.296875 15.621094 -4.414062 L 12.445312 -5.058594 L 12.445312 -18.445312 C 14.445312 -20.09375 16.535156 -20.917969 18.710938 -20.917969 C 20.386719 -20.917969 21.769531 -20.386719 22.828125 -19.328125 C 23.890625 -18.269531 24.417969 -16.769531 24.417969 -14.855469 L 24.417969 -1.234375 C 24.417969 -0.382812 24.832031 0.03125 25.683594 0.03125 L 33.421875 0.03125 C 34.273438 0.03125 34.6875 -0.382812 34.6875 -1.234375 L 34.6875 -3.175781 C 34.6875 -3.855469 34.332031 -4.265625 33.65625 -4.382812 Z M 33.628906 -4.414062 "/></g></g></g><g fill="#31b675" fill-opacity="1"><g transform="translate(58.214195, 193.025329)"><g><path d="M 30.363281 -4.414062 L 27.300781 -5 L 27.300781 -38.246094 L 26.859375 -40.921875 C 26.773438 -41.421875 26.65625 -41.746094 26.507812 -41.921875 C 26.359375 -42.101562 26.066406 -42.1875 25.625 -42.1875 L 18.359375 -42.1875 C 17.503906 -42.1875 17.09375 -41.777344 17.09375 -40.921875 L 17.09375 -38.980469 C 17.0625 -38.304688 17.386719 -37.894531 18.0625 -37.773438 L 21.210938 -37.128906 L 21.210938 -24.390625 C 19.476562 -25.59375 17.300781 -26.214844 14.679688 -26.242188 C 10.886719 -26.273438 7.765625 -25.007812 5.324219 -22.449219 C 2.882812 -19.886719 1.617188 -16.679688 1.53125 -12.828125 C 1.5 -8.765625 2.765625 -5.441406 5.355469 -2.855469 C 7.945312 -0.265625 11.0625 0.882812 14.738281 0.558594 C 17.238281 0.410156 19.652344 -0.441406 21.976562 -1.972656 L 22.09375 -1.234375 C 22.183594 -0.707031 22.300781 -0.351562 22.476562 -0.175781 C 22.652344 0 22.976562 0.0898438 23.417969 0.0898438 L 30.097656 0.0898438 C 30.949219 0.0898438 31.363281 -0.324219 31.363281 -1.175781 L 31.363281 -3.117188 C 31.363281 -3.796875 31.007812 -4.207031 30.332031 -4.324219 Z M 7.382812 -12.621094 C 7.382812 -15.035156 8.148438 -17.035156 9.679688 -18.59375 C 11.210938 -20.152344 13.179688 -20.945312 15.59375 -20.945312 C 17.742188 -20.917969 19.625 -20.328125 21.242188 -19.183594 L 21.242188 -6.855469 C 19.59375 -5.414062 17.59375 -4.679688 15.269531 -4.679688 C 12.972656 -4.679688 11.089844 -5.414062 9.621094 -6.882812 C 8.148438 -8.355469 7.414062 -10.269531 7.414062 -12.652344 Z M 7.382812 -12.621094 "/></g></g></g><g fill="#31b675" fill-opacity="1"><g transform="translate(90.924722, 193.025329)"><g><path d="M 31.566406 -4.414062 L 28.742188 -5 L 28.742188 -19.769531 L 28.273438 -24.332031 C 28.214844 -24.832031 28.097656 -25.152344 27.917969 -25.332031 C 27.742188 -25.507812 27.417969 -25.59375 26.976562 -25.59375 L 19.742188 -25.59375 C 18.886719 -25.59375 18.476562 -25.183594 18.476562 -24.332031 L 18.476562 -22.417969 C 18.476562 -21.742188 18.828125 -21.328125 19.503906 -21.210938 L 22.625 -20.59375 L 22.625 -7.179688 C 20.828125 -5.558594 18.828125 -4.765625 16.621094 -4.765625 C 15.003906 -4.765625 13.679688 -5.296875 12.621094 -6.355469 C 11.5625 -7.414062 11.03125 -8.886719 11.03125 -10.769531 L 11.03125 -19.742188 L 10.589844 -24.300781 C 10.503906 -24.800781 10.386719 -25.125 10.238281 -25.300781 C 10.089844 -25.476562 9.796875 -25.566406 9.355469 -25.566406 L 2.148438 -25.566406 C 1.292969 -25.566406 0.882812 -25.152344 0.882812 -24.300781 L 0.882812 -22.390625 C 0.851562 -21.710938 1.175781 -21.300781 1.851562 -21.183594 L 4.941406 -20.566406 L 4.941406 -9.0625 C 4.941406 -6.03125 5.914062 -3.617188 7.855469 -1.851562 C 9.796875 -0.0898438 12.089844 0.792969 14.738281 0.792969 C 17.800781 0.792969 20.652344 -0.324219 23.300781 -2.589844 L 23.535156 -1.324219 C 23.625 -0.824219 23.742188 -0.472656 23.917969 -0.265625 C 24.09375 -0.0585938 24.417969 0.03125 24.859375 0.03125 L 31.304688 0.03125 C 32.15625 0.03125 32.566406 -0.382812 32.566406 -1.234375 L 32.566406 -3.175781 C 32.566406 -3.855469 32.214844 -4.265625 31.539062 -4.382812 Z M 31.566406 -4.414062 "/></g></g></g><g fill="#31b675" fill-opacity="1"><g transform="translate(125.017833, 193.025329)"><g><path d="M 12.886719 0.792969 C 16.0625 0.792969 18.683594 0.03125 20.742188 -1.472656 C 22.800781 -2.972656 23.769531 -4.941406 23.652344 -7.382812 C 23.566406 -9.296875 22.769531 -10.886719 21.269531 -12.152344 C 19.769531 -13.414062 18.121094 -14.296875 16.359375 -14.769531 C 14.59375 -15.238281 12.972656 -15.828125 11.53125 -16.535156 C 10.089844 -17.238281 9.355469 -18.035156 9.355469 -18.917969 C 9.355469 -19.652344 9.765625 -20.242188 10.589844 -20.710938 C 11.414062 -21.183594 12.386719 -21.386719 13.535156 -21.359375 C 14.769531 -21.359375 16.121094 -21.09375 17.621094 -20.566406 L 18.035156 -18.300781 C 18.152344 -17.621094 18.5625 -17.269531 19.242188 -17.269531 L 21.183594 -17.269531 C 22.035156 -17.269531 22.449219 -17.679688 22.449219 -18.535156 L 22.449219 -23.832031 C 22.449219 -24.125 22.152344 -24.417969 21.59375 -24.683594 C 19.210938 -25.683594 16.59375 -26.214844 13.710938 -26.300781 C 10.972656 -26.390625 8.621094 -25.742188 6.679688 -24.359375 C 4.738281 -22.976562 3.765625 -21.066406 3.796875 -18.652344 C 3.824219 -17.035156 4.324219 -15.652344 5.296875 -14.535156 C 6.265625 -13.414062 7.441406 -12.5625 8.824219 -12.003906 C 10.207031 -11.445312 11.589844 -10.945312 12.945312 -10.503906 C 14.296875 -10.0625 15.445312 -9.5625 16.386719 -8.972656 C 17.328125 -8.382812 17.769531 -7.707031 17.742188 -6.941406 C 17.769531 -6.058594 17.269531 -5.355469 16.210938 -4.796875 C 15.152344 -4.238281 13.945312 -3.972656 12.5625 -4 C 10.828125 -4 9.265625 -4.296875 7.882812 -4.855469 L 7.53125 -7.265625 C 7.414062 -7.914062 7.003906 -8.238281 6.324219 -8.238281 L 4.414062 -8.238281 C 3.558594 -8.238281 3.148438 -7.824219 3.148438 -6.972656 L 3.148438 -1.914062 C 3.117188 -1.5 3.382812 -1.148438 3.914062 -0.882812 C 6.707031 0.324219 9.648438 0.941406 12.710938 0.941406 Z M 12.886719 0.792969 "/></g></g></g><g fill="#31b675" fill-opacity="1"><g transform="translate(150.55087, 193.025329)"><g><path d="M 21.566406 -2.234375 L 20.59375 -5.058594 C 20.359375 -5.679688 19.886719 -5.855469 19.210938 -5.589844 C 17.828125 -5.089844 16.679688 -4.824219 15.769531 -4.796875 C 14.238281 -4.796875 13.121094 -5.207031 12.445312 -6.058594 C 11.769531 -6.914062 11.414062 -7.972656 11.414062 -9.265625 L 11.414062 -20.59375 L 18.476562 -20.59375 C 19.328125 -20.59375 19.742188 -21.007812 19.742188 -21.859375 L 19.742188 -24.332031 C 19.742188 -25.183594 19.328125 -25.59375 18.476562 -25.59375 L 11.414062 -25.59375 L 11.414062 -32.363281 C 11.414062 -33.214844 11.003906 -33.628906 10.148438 -33.628906 L 6.648438 -33.628906 C 5.796875 -33.628906 5.382812 -33.214844 5.382812 -32.363281 L 5.382812 -25.59375 L 2.441406 -25.59375 C 1.589844 -25.59375 1.175781 -25.183594 1.175781 -24.332031 L 1.175781 -21.859375 C 1.175781 -21.007812 1.589844 -20.59375 2.441406 -20.59375 L 5.382812 -20.59375 L 5.382812 -7.648438 C 5.382812 -5.238281 6.121094 -3.234375 7.621094 -1.617188 C 9.121094 0 11.296875 0.792969 14.179688 0.792969 C 16.5625 0.765625 18.886719 0.207031 21.183594 -0.882812 C 21.683594 -1.148438 21.828125 -1.617188 21.59375 -2.265625 Z M 21.566406 -2.234375 "/></g></g></g><g fill="#31b675" fill-opacity="1"><g transform="translate(174.260119, 193.025329)"><g><path d="M 23.390625 -25.714844 C 20.945312 -26.507812 18.503906 -26.476562 16.0625 -25.625 C 14.5625 -25.066406 13.121094 -24.210938 11.738281 -23.066406 L 11.503906 -24.332031 C 11.386719 -25.183594 10.945312 -25.59375 10.179688 -25.59375 L 3.5 -25.59375 C 2.648438 -25.59375 2.234375 -25.183594 2.234375 -24.332031 L 2.234375 -22.417969 C 2.234375 -21.742188 2.589844 -21.328125 3.265625 -21.210938 L 6.382812 -20.59375 L 6.382812 -5.058594 L 3.265625 -4.414062 C 2.589844 -4.296875 2.234375 -3.882812 2.234375 -3.207031 L 2.234375 -1.265625 C 2.234375 -0.410156 2.648438 0 3.5 0 L 17.003906 0 C 17.859375 0 18.269531 -0.410156 18.269531 -1.265625 L 18.269531 -3.207031 C 18.269531 -3.882812 17.917969 -4.296875 17.238281 -4.414062 L 12.414062 -5.117188 L 12.414062 -18.269531 C 13.386719 -19.125 14.476562 -19.769531 15.679688 -20.210938 C 16.976562 -20.742188 18.300781 -20.945312 19.683594 -20.828125 L 20.152344 -18.417969 C 20.269531 -17.769531 20.683594 -17.445312 21.359375 -17.445312 L 23.300781 -17.445312 C 24.152344 -17.445312 24.566406 -17.859375 24.566406 -18.710938 L 24.566406 -24.566406 C 24.566406 -25.066406 24.183594 -25.449219 23.417969 -25.683594 Z M 23.390625 -25.714844 "/></g></g></g><g fill="#31b675" fill-opacity="1"><g transform="translate(200.440307, 193.025329)"><g><path d="M 9.53125 -32.363281 C 10.53125 -32.363281 11.386719 -32.714844 12.121094 -33.449219 C 12.855469 -34.1875 13.210938 -35.070312 13.210938 -36.097656 C 13.210938 -37.128906 12.855469 -38.011719 12.121094 -38.746094 C 11.386719 -39.480469 10.53125 -39.835938 9.53125 -39.835938 C 8.472656 -39.835938 7.589844 -39.453125 6.882812 -38.71875 C 6.179688 -37.980469 5.824219 -37.097656 5.824219 -36.097656 C 5.824219 -35.097656 6.179688 -34.214844 6.914062 -33.480469 C 7.648438 -32.746094 8.53125 -32.363281 9.5625 -32.363281 Z M 15.679688 -4.414062 L 12.5625 -5.058594 L 12.5625 -19.769531 L 12.152344 -24.332031 C 12.0625 -24.832031 11.945312 -25.152344 11.796875 -25.332031 C 11.648438 -25.507812 11.355469 -25.59375 10.914062 -25.59375 L 3.972656 -25.59375 C 3.117188 -25.59375 2.707031 -25.183594 2.707031 -24.332031 L 2.707031 -22.417969 C 2.707031 -21.742188 3.03125 -21.328125 3.675781 -21.210938 L 6.5 -20.652344 L 6.5 -5.058594 L 3.382812 -4.414062 C 2.734375 -4.296875 2.414062 -3.882812 2.414062 -3.207031 L 2.414062 -1.265625 C 2.414062 -0.410156 2.824219 0 3.675781 0 L 15.417969 0 C 16.269531 0 16.679688 -0.410156 16.679688 -1.265625 L 16.679688 -3.207031 C 16.679688 -3.882812 16.359375 -4.296875 15.710938 -4.414062 Z M 15.679688 -4.414062 "/></g></g></g><g fill="#31b675" fill-opacity="1"><g transform="translate(218.148704, 193.025329)"><g><path d="M 26.449219 -4.414062 L 23.269531 -5.058594 L 23.269531 -18.179688 C 23.269531 -20.566406 22.359375 -22.535156 20.535156 -24.09375 C 18.710938 -25.65625 16.179688 -26.417969 12.972656 -26.417969 C 10.328125 -26.417969 7.589844 -25.832031 4.738281 -24.625 C 4.207031 -24.390625 3.941406 -24.007812 3.941406 -23.476562 L 3.941406 -18.476562 C 3.941406 -17.621094 4.355469 -17.210938 5.207031 -17.210938 L 7.148438 -17.210938 C 7.824219 -17.179688 8.238281 -17.503906 8.355469 -18.152344 L 8.886719 -20.886719 C 10.03125 -21.269531 11.089844 -21.476562 12.0625 -21.476562 C 13.945312 -21.476562 15.355469 -21.035156 16.269531 -20.152344 C 17.179688 -19.269531 17.652344 -18.210938 17.652344 -16.976562 L 17.652344 -13.503906 C 14.445312 -14.621094 11.710938 -14.976562 9.445312 -14.59375 C 7.179688 -14.210938 5.441406 -13.328125 4.238281 -11.945312 C 3.03125 -10.5625 2.414062 -8.855469 2.414062 -6.855469 C 2.414062 -4.589844 3.175781 -2.792969 4.707031 -1.472656 C 6.238281 -0.148438 8.207031 0.53125 10.621094 0.53125 C 13.238281 0.53125 15.621094 -0.472656 17.800781 -2.472656 L 18.035156 -1.382812 C 18.300781 -0.5 18.800781 -0.0585938 19.5625 -0.0585938 L 26.125 -0.0585938 C 26.976562 -0.0585938 27.390625 -0.472656 27.390625 -1.324219 L 27.390625 -3.265625 C 27.390625 -3.941406 27.066406 -4.355469 26.417969 -4.472656 Z M 8.238281 -7.179688 C 8.238281 -8.796875 9.0625 -9.828125 10.707031 -10.269531 C 12.355469 -10.707031 14.652344 -10.328125 17.59375 -9.089844 L 17.59375 -6.207031 C 16.179688 -4.941406 14.59375 -4.265625 12.828125 -4.148438 C 11.472656 -4.03125 10.355469 -4.265625 9.503906 -4.824219 C 8.648438 -5.382812 8.207031 -6.179688 8.207031 -7.179688 Z M 8.238281 -7.179688 "/></g></g></g><g fill="#31b675" fill-opacity="1"><g transform="translate(246.682167, 193.025329)"><g><path d="M 13.679688 -5.53125 C 11.179688 -5.53125 9.945312 -6.855469 9.945312 -9.472656 L 9.945312 -38.1875 L 9.53125 -40.921875 C 9.445312 -41.394531 9.324219 -41.71875 9.179688 -41.894531 C 9.03125 -42.070312 8.738281 -42.160156 8.296875 -42.160156 L 1.058594 -42.160156 C 0.207031 -42.160156 -0.207031 -41.746094 -0.207031 -40.894531 L -0.207031 -38.953125 C -0.207031 -38.277344 0.148438 -37.863281 0.824219 -37.746094 L 3.941406 -37.097656 L 3.941406 -9.445312 C 3.941406 -3.117188 7.207031 0.03125 13.710938 0.03125 C 14.5625 0.03125 14.976562 -0.382812 14.976562 -1.234375 L 14.976562 -4.238281 C 14.976562 -5.089844 14.5625 -5.5 13.710938 -5.5 Z M 13.679688 -5.53125 "/></g></g></g><g fill="#31b675" fill-opacity="1"><g transform="translate(264.008191, 193.025329)"><g/></g></g><g fill="#31b675" fill-opacity="1"><g transform="translate(277.539524, 193.025329)"><g><path d="M 26.449219 -4.414062 L 23.269531 -5.058594 L 23.269531 -18.179688 C 23.269531 -20.566406 22.359375 -22.535156 20.535156 -24.09375 C 18.710938 -25.65625 16.179688 -26.417969 12.972656 -26.417969 C 10.328125 -26.417969 7.589844 -25.832031 4.738281 -24.625 C 4.207031 -24.390625 3.941406 -24.007812 3.941406 -23.476562 L 3.941406 -18.476562 C 3.941406 -17.621094 4.355469 -17.210938 5.207031 -17.210938 L 7.148438 -17.210938 C 7.824219 -17.179688 8.238281 -17.503906 8.355469 -18.152344 L 8.886719 -20.886719 C 10.03125 -21.269531 11.089844 -21.476562 12.0625 -21.476562 C 13.945312 -21.476562 15.355469 -21.035156 16.269531 -20.152344 C 17.179688 -19.269531 17.652344 -18.210938 17.652344 -16.976562 L 17.652344 -13.503906 C 14.445312 -14.621094 11.710938 -14.976562 9.445312 -14.59375 C 7.179688 -14.210938 5.441406 -13.328125 4.238281 -11.945312 C 3.03125 -10.5625 2.414062 -8.855469 2.414062 -6.855469 C 2.414062 -4.589844 3.175781 -2.792969 4.707031 -1.472656 C 6.238281 -0.148438 8.207031 0.53125 10.621094 0.53125 C 13.238281 0.53125 15.621094 -0.472656 17.800781 -2.472656 L 18.035156 -1.382812 C 18.300781 -0.5 18.800781 -0.0585938 19.5625 -0.0585938 L 26.125 -0.0585938 C 26.976562 -0.0585938 27.390625 -0.472656 27.390625 -1.324219 L 27.390625 -3.265625 C 27.390625 -3.941406 27.066406 -4.355469 26.417969 -4.472656 Z M 8.238281 -7.179688 C 8.238281 -8.796875 9.0625 -9.828125 10.707031 -10.269531 C 12.355469 -10.707031 14.652344 -10.328125 17.59375 -9.089844 L 17.59375 -6.207031 C 16.179688 -4.941406 14.59375 -4.265625 12.828125 -4.148438 C 11.472656 -4.03125 10.355469 -4.265625 9.503906 -4.824219 C 8.648438 -5.382812 8.207031 -6.179688 8.207031 -7.179688 Z M 8.238281 -7.179688 "/></g></g></g><g fill="#31b675" fill-opacity="1"><g transform="translate(306.072987, 193.025329)"><g><path d="M 33.628906 -4.414062 L 30.421875 -5.058594 L 30.421875 -16.503906 C 30.421875 -19.5625 29.449219 -21.976562 27.507812 -23.742188 C 25.566406 -25.507812 23.269531 -26.390625 20.625 -26.390625 C 17.476562 -26.390625 14.535156 -25.242188 11.769531 -22.949219 L 11.53125 -24.332031 C 11.414062 -25.183594 10.972656 -25.59375 10.207031 -25.59375 L 3.53125 -25.59375 C 2.675781 -25.59375 2.265625 -25.183594 2.265625 -24.332031 L 2.265625 -22.417969 C 2.265625 -21.742188 2.617188 -21.328125 3.296875 -21.210938 L 6.355469 -20.59375 L 6.355469 -5 L 3.296875 -4.414062 C 2.617188 -4.296875 2.265625 -3.882812 2.265625 -3.207031 L 2.265625 -1.265625 C 2.265625 -0.410156 2.675781 0 3.53125 0 L 15.328125 0 C 16.179688 0 16.59375 -0.410156 16.59375 -1.265625 L 16.59375 -3.207031 C 16.59375 -3.882812 16.269531 -4.296875 15.621094 -4.414062 L 12.445312 -5.058594 L 12.445312 -18.445312 C 14.445312 -20.09375 16.535156 -20.917969 18.710938 -20.917969 C 20.386719 -20.917969 21.769531 -20.386719 22.828125 -19.328125 C 23.890625 -18.269531 24.417969 -16.769531 24.417969 -14.855469 L 24.417969 -1.234375 C 24.417969 -0.382812 24.832031 0.03125 25.683594 0.03125 L 33.421875 0.03125 C 34.273438 0.03125 34.6875 -0.382812 34.6875 -1.234375 L 34.6875 -3.175781 C 34.6875 -3.855469 34.332031 -4.265625 33.65625 -4.382812 Z M 33.628906 -4.414062 "/></g></g></g><g fill="#31b675" fill-opacity="1"><g transform="translate(341.783941, 193.025329)"><g><path d="M 30.363281 -4.414062 L 27.300781 -5 L 27.300781 -38.246094 L 26.859375 -40.921875 C 26.773438 -41.421875 26.65625 -41.746094 26.507812 -41.921875 C 26.359375 -42.101562 26.066406 -42.1875 25.625 -42.1875 L 18.359375 -42.1875 C 17.503906 -42.1875 17.09375 -41.777344 17.09375 -40.921875 L 17.09375 -38.980469 C 17.0625 -38.304688 17.386719 -37.894531 18.0625 -37.773438 L 21.210938 -37.128906 L 21.210938 -24.390625 C 19.476562 -25.59375 17.300781 -26.214844 14.679688 -26.242188 C 10.886719 -26.273438 7.765625 -25.007812 5.324219 -22.449219 C 2.882812 -19.886719 1.617188 -16.679688 1.53125 -12.828125 C 1.5 -8.765625 2.765625 -5.441406 5.355469 -2.855469 C 7.945312 -0.265625 11.0625 0.882812 14.738281 0.558594 C 17.238281 0.410156 19.652344 -0.441406 21.976562 -1.972656 L 22.09375 -1.234375 C 22.183594 -0.707031 22.300781 -0.351562 22.476562 -0.175781 C 22.652344 0 22.976562 0.0898438 23.417969 0.0898438 L 30.097656 0.0898438 C 30.949219 0.0898438 31.363281 -0.324219 31.363281 -1.175781 L 31.363281 -3.117188 C 31.363281 -3.796875 31.007812 -4.207031 30.332031 -4.324219 Z M 7.382812 -12.621094 C 7.382812 -15.035156 8.148438 -17.035156 9.679688 -18.59375 C 11.210938 -20.152344 13.179688 -20.945312 15.59375 -20.945312 C 17.742188 -20.917969 19.625 -20.328125 21.242188 -19.183594 L 21.242188 -6.855469 C 19.59375 -5.414062 17.59375 -4.679688 15.269531 -4.679688 C 12.972656 -4.679688 11.089844 -5.414062 9.621094 -6.882812 C 8.148438 -8.355469 7.414062 -10.269531 7.414062 -12.652344 Z M 7.382812 -12.621094 "/></g></g></g><g fill="#31b675" fill-opacity="1"><g transform="translate(374.494468, 193.025329)"><g/></g></g><g fill="#31b675" fill-opacity="1"><g transform="translate(388.025801, 193.025329)"><g><path d="M 40.601562 -4.414062 L 36.804688 -5.058594 L 23.566406 -40.980469 C 23.417969 -41.480469 23.242188 -41.804688 23.035156 -41.953125 C 22.828125 -42.101562 22.476562 -42.160156 21.976562 -42.160156 L 13.179688 -42.160156 C 12.328125 -42.160156 11.914062 -41.746094 11.914062 -40.894531 L 11.914062 -38.953125 C 11.886719 -38.277344 12.210938 -37.863281 12.886719 -37.746094 L 16.738281 -37.273438 L 4.882812 -5.03125 L 1.148438 -4.382812 C 0.472656 -4.265625 0.117188 -3.855469 0.117188 -3.175781 L 0.117188 -1.234375 C 0.117188 -0.382812 0.53125 0.03125 1.382812 0.03125 L 8.382812 0.03125 C 9.03125 0.03125 9.503906 -0.382812 9.828125 -1.175781 L 12.710938 -9.179688 L 28.921875 -9.179688 L 31.863281 -1.175781 C 32.1875 -0.382812 32.6875 0.03125 33.332031 0.03125 L 40.304688 0.03125 C 41.160156 0.03125 41.570312 -0.382812 41.570312 -1.234375 L 41.570312 -3.175781 C 41.570312 -3.855469 41.21875 -4.265625 40.539062 -4.382812 Z M 14.769531 -14.914062 L 20.859375 -32.332031 L 26.859375 -14.914062 Z M 14.769531 -14.914062 "/></g></g></g><g fill="#31b675" fill-opacity="1"><g transform="translate(430.237712, 193.025329)"><g><path d="M 18.445312 -26.09375 C 15.886719 -25.976562 13.503906 -25.125 11.296875 -23.507812 L 11.121094 -24.332031 C 11.003906 -25.183594 10.5625 -25.59375 9.796875 -25.59375 L 3.414062 -25.59375 C 2.558594 -25.59375 2.148438 -25.183594 2.148438 -24.332031 L 2.148438 -22.417969 C 2.117188 -21.742188 2.441406 -21.328125 3.089844 -21.210938 L 6 -20.652344 L 6 8.382812 L 2.792969 9.03125 C 2.148438 9.148438 1.824219 9.5625 1.824219 10.238281 L 1.824219 12.179688 C 1.824219 13.03125 2.234375 13.445312 3.089844 13.445312 L 16.359375 13.445312 C 17.210938 13.445312 17.621094 13.03125 17.621094 12.179688 L 17.621094 10.238281 C 17.621094 9.5625 17.269531 9.148438 16.59375 9.03125 L 12.03125 8.324219 L 12.03125 -1.207031 C 13.828125 0 16.003906 0.589844 18.535156 0.589844 C 22.300781 0.648438 25.417969 -0.589844 27.859375 -3.117188 C 30.300781 -5.648438 31.566406 -8.855469 31.65625 -12.710938 C 31.683594 -16.769531 30.421875 -20.09375 27.859375 -22.683594 C 25.300781 -25.273438 22.183594 -26.417969 18.503906 -26.09375 Z M 17.652344 -4.589844 C 15.652344 -4.589844 13.796875 -5.179688 12.0625 -6.324219 L 12.0625 -18.742188 C 13.855469 -20.183594 15.859375 -20.917969 18.0625 -20.917969 C 20.328125 -20.917969 22.210938 -20.183594 23.710938 -18.683594 C 25.214844 -17.179688 25.949219 -15.238281 25.949219 -12.855469 C 25.949219 -10.445312 25.183594 -8.445312 23.625 -6.882812 C 22.066406 -5.324219 20.09375 -4.53125 17.679688 -4.53125 Z M 17.652344 -4.589844 "/></g></g></g><g fill="#31b675" fill-opacity="1"><g transform="translate(463.418893, 193.025329)"><g><path d="M 18.445312 -26.09375 C 15.886719 -25.976562 13.503906 -25.125 11.296875 -23.507812 L 11.121094 -24.332031 C 11.003906 -25.183594 10.5625 -25.59375 9.796875 -25.59375 L 3.414062 -25.59375 C 2.558594 -25.59375 2.148438 -25.183594 2.148438 -24.332031 L 2.148438 -22.417969 C 2.117188 -21.742188 2.441406 -21.328125 3.089844 -21.210938 L 6 -20.652344 L 6 8.382812 L 2.792969 9.03125 C 2.148438 9.148438 1.824219 9.5625 1.824219 10.238281 L 1.824219 12.179688 C 1.824219 13.03125 2.234375 13.445312 3.089844 13.445312 L 16.359375 13.445312 C 17.210938 13.445312 17.621094 13.03125 17.621094 12.179688 L 17.621094 10.238281 C 17.621094 9.5625 17.269531 9.148438 16.59375 9.03125 L 12.03125 8.324219 L 12.03125 -1.207031 C 13.828125 0 16.003906 0.589844 18.535156 0.589844 C 22.300781 0.648438 25.417969 -0.589844 27.859375 -3.117188 C 30.300781 -5.648438 31.566406 -8.855469 31.65625 -12.710938 C 31.683594 -16.769531 30.421875 -20.09375 27.859375 -22.683594 C 25.300781 -25.273438 22.183594 -26.417969 18.503906 -26.09375 Z M 17.652344 -4.589844 C 15.652344 -4.589844 13.796875 -5.179688 12.0625 -6.324219 L 12.0625 -18.742188 C 13.855469 -20.183594 15.859375 -20.917969 18.0625 -20.917969 C 20.328125 -20.917969 22.210938 -20.183594 23.710938 -18.683594 C 25.214844 -17.179688 25.949219 -15.238281 25.949219 -12.855469 C 25.949219 -10.445312 25.183594 -8.445312 23.625 -6.882812 C 22.066406 -5.324219 20.09375 -4.53125 17.679688 -4.53125 Z M 17.652344 -4.589844 "/></g></g></g><g fill="#31b675" fill-opacity="1"><g transform="translate(496.600075, 193.025329)"><g><path d="M 13.679688 -5.53125 C 11.179688 -5.53125 9.945312 -6.855469 9.945312 -9.472656 L 9.945312 -38.1875 L 9.53125 -40.921875 C 9.445312 -41.394531 9.324219 -41.71875 9.179688 -41.894531 C 9.03125 -42.070312 8.738281 -42.160156 8.296875 -42.160156 L 1.058594 -42.160156 C 0.207031 -42.160156 -0.207031 -41.746094 -0.207031 -40.894531 L -0.207031 -38.953125 C -0.207031 -38.277344 0.148438 -37.863281 0.824219 -37.746094 L 3.941406 -37.097656 L 3.941406 -9.445312 C 3.941406 -3.117188 7.207031 0.03125 13.710938 0.03125 C 14.5625 0.03125 14.976562 -0.382812 14.976562 -1.234375 L 14.976562 -4.238281 C 14.976562 -5.089844 14.5625 -5.5 13.710938 -5.5 Z M 13.679688 -5.53125 "/></g></g></g><g fill="#31b675" fill-opacity="1"><g transform="translate(513.926099, 193.025329)"><g><path d="M 9.53125 -32.363281 C 10.53125 -32.363281 11.386719 -32.714844 12.121094 -33.449219 C 12.855469 -34.1875 13.210938 -35.070312 13.210938 -36.097656 C 13.210938 -37.128906 12.855469 -38.011719 12.121094 -38.746094 C 11.386719 -39.480469 10.53125 -39.835938 9.53125 -39.835938 C 8.472656 -39.835938 7.589844 -39.453125 6.882812 -38.71875 C 6.179688 -37.980469 5.824219 -37.097656 5.824219 -36.097656 C 5.824219 -35.097656 6.179688 -34.214844 6.914062 -33.480469 C 7.648438 -32.746094 8.53125 -32.363281 9.5625 -32.363281 Z M 15.679688 -4.414062 L 12.5625 -5.058594 L 12.5625 -19.769531 L 12.152344 -24.332031 C 12.0625 -24.832031 11.945312 -25.152344 11.796875 -25.332031 C 11.648438 -25.507812 11.355469 -25.59375 10.914062 -25.59375 L 3.972656 -25.59375 C 3.117188 -25.59375 2.707031 -25.183594 2.707031 -24.332031 L 2.707031 -22.417969 C 2.707031 -21.742188 3.03125 -21.328125 3.675781 -21.210938 L 6.5 -20.652344 L 6.5 -5.058594 L 3.382812 -4.414062 C 2.734375 -4.296875 2.414062 -3.882812 2.414062 -3.207031 L 2.414062 -1.265625 C 2.414062 -0.410156 2.824219 0 3.675781 0 L 15.417969 0 C 16.269531 0 16.679688 -0.410156 16.679688 -1.265625 L 16.679688 -3.207031 C 16.679688 -3.882812 16.359375 -4.296875 15.710938 -4.414062 Z M 15.679688 -4.414062 "/></g></g></g><g fill="#31b675" fill-opacity="1"><g transform="translate(531.634496, 193.025329)"><g><path d="M 14.210938 -26.390625 C 10.589844 -26.390625 7.589844 -25.066406 5.179688 -22.449219 C 2.765625 -19.828125 1.558594 -16.621094 1.558594 -12.828125 C 1.558594 -8.972656 2.792969 -5.738281 5.265625 -3.117188 C 7.738281 -0.5 10.945312 0.824219 14.886719 0.824219 C 18.09375 0.824219 20.945312 -0.03125 23.449219 -1.707031 C 24.152344 -2.207031 24.332031 -2.765625 23.976562 -3.414062 L 22.769531 -5.882812 C 22.328125 -6.5625 21.800781 -6.707031 21.152344 -6.324219 C 18.945312 -5.179688 16.828125 -4.589844 14.828125 -4.589844 C 12.5625 -4.589844 10.769531 -5.238281 9.445312 -6.5625 C 8.121094 -7.882812 7.414062 -9.589844 7.324219 -11.679688 L 25.035156 -11.679688 C 25.890625 -11.679688 26.332031 -12.089844 26.359375 -12.945312 L 26.359375 -14.152344 C 26.273438 -17.59375 25.066406 -20.503906 22.742188 -22.859375 C 20.417969 -25.214844 17.5625 -26.390625 14.152344 -26.390625 Z M 14.210938 -21.386719 C 15.886719 -21.386719 17.328125 -20.828125 18.535156 -19.742188 C 19.742188 -18.652344 20.445312 -17.269531 20.652344 -15.59375 L 7.679688 -15.59375 C 8.003906 -17.328125 8.765625 -18.710938 9.945312 -19.769531 C 11.121094 -20.828125 12.53125 -21.359375 14.179688 -21.359375 Z M 14.210938 -21.386719 "/></g></g></g><g fill="#31b675" fill-opacity="1"><g transform="translate(559.638472, 193.025329)"><g><path d="M 30.363281 -4.414062 L 27.300781 -5 L 27.300781 -38.246094 L 26.859375 -40.921875 C 26.773438 -41.421875 26.65625 -41.746094 26.507812 -41.921875 C 26.359375 -42.101562 26.066406 -42.1875 25.625 -42.1875 L 18.359375 -42.1875 C 17.503906 -42.1875 17.09375 -41.777344 17.09375 -40.921875 L 17.09375 -38.980469 C 17.0625 -38.304688 17.386719 -37.894531 18.0625 -37.773438 L 21.210938 -37.128906 L 21.210938 -24.390625 C 19.476562 -25.59375 17.300781 -26.214844 14.679688 -26.242188 C 10.886719 -26.273438 7.765625 -25.007812 5.324219 -22.449219 C 2.882812 -19.886719 1.617188 -16.679688 1.53125 -12.828125 C 1.5 -8.765625 2.765625 -5.441406 5.355469 -2.855469 C 7.945312 -0.265625 11.0625 0.882812 14.738281 0.558594 C 17.238281 0.410156 19.652344 -0.441406 21.976562 -1.972656 L 22.09375 -1.234375 C 22.183594 -0.707031 22.300781 -0.351562 22.476562 -0.175781 C 22.652344 0 22.976562 0.0898438 23.417969 0.0898438 L 30.097656 0.0898438 C 30.949219 0.0898438 31.363281 -0.324219 31.363281 -1.175781 L 31.363281 -3.117188 C 31.363281 -3.796875 31.007812 -4.207031 30.332031 -4.324219 Z M 7.382812 -12.621094 C 7.382812 -15.035156 8.148438 -17.035156 9.679688 -18.59375 C 11.210938 -20.152344 13.179688 -20.945312 15.59375 -20.945312 C 17.742188 -20.917969 19.625 -20.328125 21.242188 -19.183594 L 21.242188 -6.855469 C 19.59375 -5.414062 17.59375 -4.679688 15.269531 -4.679688 C 12.972656 -4.679688 11.089844 -5.414062 9.621094 -6.882812 C 8.148438 -8.355469 7.414062 -10.269531 7.414062 -12.652344 Z M 7.382812 -12.621094 "/></g></g></g><g fill="#31b675" fill-opacity="1"><g transform="translate(0.000012, 274.386306)"><g><path d="M 56.046875 -4.414062 L 52.425781 -5.238281 L 48.25 -36.980469 L 51.457031 -37.773438 C 52.132812 -37.894531 52.484375 -38.304688 52.484375 -38.980469 L 52.484375 -40.921875 C 52.484375 -41.777344 52.074219 -42.1875 51.21875 -42.1875 L 42.660156 -42.1875 C 42.101562 -42.1875 41.628906 -41.804688 41.277344 -41.039062 L 29.097656 -9.324219 L 16.859375 -41.039062 C 16.59375 -41.804688 16.121094 -42.1875 15.476562 -42.1875 L 6.941406 -42.1875 C 6.089844 -42.1875 5.679688 -41.777344 5.679688 -40.921875 L 5.679688 -38.980469 C 5.648438 -38.304688 5.972656 -37.894531 6.621094 -37.773438 L 9.945312 -36.980469 L 5.738281 -5.179688 L 2.472656 -4.414062 C 1.824219 -4.296875 1.5 -3.882812 1.5 -3.207031 L 1.5 -1.265625 C 1.5 -0.410156 1.914062 0 2.765625 0 L 14.652344 0 C 15.503906 0 15.917969 -0.410156 15.917969 -1.265625 L 15.917969 -3.207031 C 15.917969 -3.882812 15.5625 -4.296875 14.886719 -4.414062 L 12.121094 -5.058594 L 15.003906 -28.742188 L 25.976562 -1.148438 C 26.300781 -0.382812 26.832031 0 27.566406 0 L 30.683594 0 C 31.421875 0 31.949219 -0.382812 32.273438 -1.148438 L 43.101562 -29.097656 L 46.070312 -5.058594 L 43.425781 -4.414062 C 42.777344 -4.296875 42.453125 -3.882812 42.453125 -3.207031 L 42.453125 -1.265625 C 42.453125 -0.410156 42.863281 0 43.71875 0 L 55.75 0 C 56.605469 0 57.015625 -0.410156 57.015625 -1.265625 L 57.015625 -3.207031 C 57.046875 -3.882812 56.722656 -4.296875 56.074219 -4.414062 Z M 56.046875 -4.414062 "/></g></g></g><g fill="#31b675" fill-opacity="1"><g transform="translate(58.302408, 274.386306)"><g><path d="M 26.449219 -4.414062 L 23.269531 -5.058594 L 23.269531 -18.179688 C 23.269531 -20.566406 22.359375 -22.535156 20.535156 -24.09375 C 18.710938 -25.65625 16.179688 -26.417969 12.972656 -26.417969 C 10.328125 -26.417969 7.589844 -25.832031 4.738281 -24.625 C 4.207031 -24.390625 3.941406 -24.007812 3.941406 -23.476562 L 3.941406 -18.476562 C 3.941406 -17.621094 4.355469 -17.210938 5.207031 -17.210938 L 7.148438 -17.210938 C 7.824219 -17.179688 8.238281 -17.503906 8.355469 -18.152344 L 8.886719 -20.886719 C 10.03125 -21.269531 11.089844 -21.476562 12.0625 -21.476562 C 13.945312 -21.476562 15.355469 -21.035156 16.269531 -20.152344 C 17.179688 -19.269531 17.652344 -18.210938 17.652344 -16.976562 L 17.652344 -13.503906 C 14.445312 -14.621094 11.710938 -14.976562 9.445312 -14.59375 C 7.179688 -14.210938 5.441406 -13.328125 4.238281 -11.945312 C 3.03125 -10.5625 2.414062 -8.855469 2.414062 -6.855469 C 2.414062 -4.589844 3.175781 -2.792969 4.707031 -1.472656 C 6.238281 -0.148438 8.207031 0.53125 10.621094 0.53125 C 13.238281 0.53125 15.621094 -0.472656 17.800781 -2.472656 L 18.035156 -1.382812 C 18.300781 -0.5 18.800781 -0.0585938 19.5625 -0.0585938 L 26.125 -0.0585938 C 26.976562 -0.0585938 27.390625 -0.472656 27.390625 -1.324219 L 27.390625 -3.265625 C 27.390625 -3.941406 27.066406 -4.355469 26.417969 -4.472656 Z M 8.238281 -7.179688 C 8.238281 -8.796875 9.0625 -9.828125 10.707031 -10.269531 C 12.355469 -10.707031 14.652344 -10.328125 17.59375 -9.089844 L 17.59375 -6.207031 C 16.179688 -4.941406 14.59375 -4.265625 12.828125 -4.148438 C 11.472656 -4.03125 10.355469 -4.265625 9.503906 -4.824219 C 8.648438 -5.382812 8.207031 -6.179688 8.207031 -7.179688 Z M 8.238281 -7.179688 "/></g></g></g><g fill="#31b675" fill-opacity="1"><g transform="translate(86.835871, 274.386306)"><g><path d="M 21.566406 -2.234375 L 20.59375 -5.058594 C 20.359375 -5.679688 19.886719 -5.855469 19.210938 -5.589844 C 17.828125 -5.089844 16.679688 -4.824219 15.769531 -4.796875 C 14.238281 -4.796875 13.121094 -5.207031 12.445312 -6.058594 C 11.769531 -6.914062 11.414062 -7.972656 11.414062 -9.265625 L 11.414062 -20.59375 L 18.476562 -20.59375 C 19.328125 -20.59375 19.742188 -21.007812 19.742188 -21.859375 L 19.742188 -24.332031 C 19.742188 -25.183594 19.328125 -25.59375 18.476562 -25.59375 L 11.414062 -25.59375 L 11.414062 -32.363281 C 11.414062 -33.214844 11.003906 -33.628906 10.148438 -33.628906 L 6.648438 -33.628906 C 5.796875 -33.628906 5.382812 -33.214844 5.382812 -32.363281 L 5.382812 -25.59375 L 2.441406 -25.59375 C 1.589844 -25.59375 1.175781 -25.183594 1.175781 -24.332031 L 1.175781 -21.859375 C 1.175781 -21.007812 1.589844 -20.59375 2.441406 -20.59375 L 5.382812 -20.59375 L 5.382812 -7.648438 C 5.382812 -5.238281 6.121094 -3.234375 7.621094 -1.617188 C 9.121094 0 11.296875 0.792969 14.179688 0.792969 C 16.5625 0.765625 18.886719 0.207031 21.183594 -0.882812 C 21.683594 -1.148438 21.828125 -1.617188 21.59375 -2.265625 Z M 21.566406 -2.234375 "/></g></g></g><g fill="#31b675" fill-opacity="1"><g transform="translate(110.54512, 274.386306)"><g><path d="M 34.714844 -4.414062 L 31.566406 -5.058594 L 31.566406 -16.503906 C 31.566406 -19.5625 30.597656 -21.976562 28.65625 -23.742188 C 26.714844 -25.507812 24.417969 -26.390625 21.769531 -26.390625 C 18.886719 -26.390625 16.152344 -25.417969 13.535156 -23.507812 L 13.535156 -38.246094 L 13.09375 -40.921875 C 13.003906 -41.394531 12.886719 -41.71875 12.738281 -41.894531 C 12.589844 -42.070312 12.296875 -42.160156 11.855469 -42.160156 L 4.707031 -42.160156 C 3.855469 -42.160156 3.441406 -41.746094 3.441406 -40.894531 L 3.441406 -38.953125 C 3.414062 -38.277344 3.738281 -37.863281 4.382812 -37.746094 L 7.53125 -37.097656 L 7.53125 -5.03125 L 4.382812 -4.382812 C 3.765625 -4.265625 3.441406 -3.855469 3.441406 -3.175781 L 3.441406 -1.234375 C 3.441406 -0.382812 3.855469 0.03125 4.707031 0.03125 L 16.445312 0.03125 C 17.300781 0.03125 17.710938 -0.382812 17.710938 -1.234375 L 17.710938 -3.175781 C 17.710938 -3.855469 17.386719 -4.265625 16.738281 -4.382812 L 13.5625 -5.03125 L 13.5625 -18.417969 C 15.5625 -20.066406 17.652344 -20.886719 19.828125 -20.886719 C 21.507812 -20.886719 22.890625 -20.359375 23.949219 -19.300781 C 25.007812 -18.242188 25.535156 -16.738281 25.535156 -14.828125 L 25.535156 -1.207031 C 25.535156 -0.351562 25.949219 0.0585938 26.800781 0.0585938 L 34.449219 0.0585938 C 35.304688 0.0585938 35.714844 -0.351562 35.714844 -1.207031 L 35.714844 -3.148438 C 35.746094 -3.824219 35.421875 -4.238281 34.773438 -4.355469 Z M 34.714844 -4.414062 "/></g></g></g><g fill="#31b675" fill-opacity="1"><g transform="translate(147.285666, 274.386306)"><g><path d="M 14.210938 -26.390625 C 10.589844 -26.390625 7.589844 -25.066406 5.179688 -22.449219 C 2.765625 -19.828125 1.558594 -16.621094 1.558594 -12.828125 C 1.558594 -8.972656 2.792969 -5.738281 5.265625 -3.117188 C 7.738281 -0.5 10.945312 0.824219 14.886719 0.824219 C 18.09375 0.824219 20.945312 -0.03125 23.449219 -1.707031 C 24.152344 -2.207031 24.332031 -2.765625 23.976562 -3.414062 L 22.769531 -5.882812 C 22.328125 -6.5625 21.800781 -6.707031 21.152344 -6.324219 C 18.945312 -5.179688 16.828125 -4.589844 14.828125 -4.589844 C 12.5625 -4.589844 10.769531 -5.238281 9.445312 -6.5625 C 8.121094 -7.882812 7.414062 -9.589844 7.324219 -11.679688 L 25.035156 -11.679688 C 25.890625 -11.679688 26.332031 -12.089844 26.359375 -12.945312 L 26.359375 -14.152344 C 26.273438 -17.59375 25.066406 -20.503906 22.742188 -22.859375 C 20.417969 -25.214844 17.5625 -26.390625 14.152344 -26.390625 Z M 14.210938 -21.386719 C 15.886719 -21.386719 17.328125 -20.828125 18.535156 -19.742188 C 19.742188 -18.652344 20.445312 -17.269531 20.652344 -15.59375 L 7.679688 -15.59375 C 8.003906 -17.328125 8.765625 -18.710938 9.945312 -19.769531 C 11.121094 -20.828125 12.53125 -21.359375 14.179688 -21.359375 Z M 14.210938 -21.386719 "/></g></g></g><g fill="#31b675" fill-opacity="1"><g transform="translate(175.289642, 274.386306)"><g><path d="M 50.984375 -4.414062 L 47.835938 -5.058594 L 47.835938 -16.503906 C 47.835938 -19.535156 46.808594 -21.949219 44.746094 -23.742188 C 42.6875 -25.535156 40.277344 -26.417969 37.539062 -26.417969 C 34.039062 -26.417969 30.832031 -25.242188 27.949219 -22.917969 C 26.066406 -25.242188 23.507812 -26.417969 20.300781 -26.417969 C 17.386719 -26.417969 14.5625 -25.300781 11.796875 -23.09375 L 11.5625 -24.359375 C 11.414062 -25.214844 10.972656 -25.625 10.238281 -25.625 L 3.5 -25.625 C 2.648438 -25.625 2.234375 -25.214844 2.234375 -24.359375 L 2.234375 -22.449219 C 2.234375 -21.769531 2.589844 -21.359375 3.265625 -21.242188 L 6.382812 -20.625 L 6.382812 -5.089844 L 3.265625 -4.441406 C 2.617188 -4.324219 2.292969 -3.914062 2.292969 -3.234375 L 2.292969 -1.292969 C 2.292969 -0.441406 2.707031 -0.03125 3.558594 -0.03125 L 15.296875 -0.03125 C 16.152344 -0.03125 16.5625 -0.441406 16.5625 -1.292969 L 16.5625 -3.234375 C 16.5625 -3.914062 16.238281 -4.324219 15.59375 -4.441406 L 12.472656 -5.089844 L 12.472656 -18.535156 C 14.355469 -20.152344 16.359375 -20.945312 18.503906 -20.945312 C 20.066406 -20.945312 21.386719 -20.417969 22.449219 -19.359375 C 23.507812 -18.300781 24.035156 -16.828125 24.035156 -14.945312 L 24.035156 -1.324219 C 24.035156 -0.472656 24.449219 -0.0585938 25.300781 -0.0585938 L 33.007812 -0.0585938 C 33.863281 -0.0585938 34.273438 -0.472656 34.273438 -1.324219 L 34.273438 -3.265625 C 34.273438 -3.941406 33.921875 -4.355469 33.246094 -4.472656 L 30.125 -5.117188 L 30.125 -16.5625 C 30.125 -17.476562 30.039062 -18.269531 29.890625 -18.917969 C 31.449219 -20.300781 33.332031 -20.976562 35.539062 -20.976562 C 37.214844 -20.976562 38.65625 -20.445312 39.894531 -19.386719 C 41.128906 -18.328125 41.746094 -16.859375 41.746094 -14.976562 L 41.746094 -1.351562 C 41.746094 -0.5 42.160156 -0.0898438 43.011719 -0.0898438 L 50.660156 -0.0898438 C 51.515625 -0.0898438 51.925781 -0.5 51.925781 -1.351562 L 51.925781 -3.296875 C 51.957031 -3.972656 51.632812 -4.382812 50.984375 -4.5 Z M 50.984375 -4.414062 "/></g></g></g><g fill="#31b675" fill-opacity="1"><g transform="translate(228.297169, 274.386306)"><g><path d="M 26.449219 -4.414062 L 23.269531 -5.058594 L 23.269531 -18.179688 C 23.269531 -20.566406 22.359375 -22.535156 20.535156 -24.09375 C 18.710938 -25.65625 16.179688 -26.417969 12.972656 -26.417969 C 10.328125 -26.417969 7.589844 -25.832031 4.738281 -24.625 C 4.207031 -24.390625 3.941406 -24.007812 3.941406 -23.476562 L 3.941406 -18.476562 C 3.941406 -17.621094 4.355469 -17.210938 5.207031 -17.210938 L 7.148438 -17.210938 C 7.824219 -17.179688 8.238281 -17.503906 8.355469 -18.152344 L 8.886719 -20.886719 C 10.03125 -21.269531 11.089844 -21.476562 12.0625 -21.476562 C 13.945312 -21.476562 15.355469 -21.035156 16.269531 -20.152344 C 17.179688 -19.269531 17.652344 -18.210938 17.652344 -16.976562 L 17.652344 -13.503906 C 14.445312 -14.621094 11.710938 -14.976562 9.445312 -14.59375 C 7.179688 -14.210938 5.441406 -13.328125 4.238281 -11.945312 C 3.03125 -10.5625 2.414062 -8.855469 2.414062 -6.855469 C 2.414062 -4.589844 3.175781 -2.792969 4.707031 -1.472656 C 6.238281 -0.148438 8.207031 0.53125 10.621094 0.53125 C 13.238281 0.53125 15.621094 -0.472656 17.800781 -2.472656 L 18.035156 -1.382812 C 18.300781 -0.5 18.800781 -0.0585938 19.5625 -0.0585938 L 26.125 -0.0585938 C 26.976562 -0.0585938 27.390625 -0.472656 27.390625 -1.324219 L 27.390625 -3.265625 C 27.390625 -3.941406 27.066406 -4.355469 26.417969 -4.472656 Z M 8.238281 -7.179688 C 8.238281 -8.796875 9.0625 -9.828125 10.707031 -10.269531 C 12.355469 -10.707031 14.652344 -10.328125 17.59375 -9.089844 L 17.59375 -6.207031 C 16.179688 -4.941406 14.59375 -4.265625 12.828125 -4.148438 C 11.472656 -4.03125 10.355469 -4.265625 9.503906 -4.824219 C 8.648438 -5.382812 8.207031 -6.179688 8.207031 -7.179688 Z M 8.238281 -7.179688 "/></g></g></g><g fill="#31b675" fill-opacity="1"><g transform="translate(256.830632, 274.386306)"><g><path d="M 21.566406 -2.234375 L 20.59375 -5.058594 C 20.359375 -5.679688 19.886719 -5.855469 19.210938 -5.589844 C 17.828125 -5.089844 16.679688 -4.824219 15.769531 -4.796875 C 14.238281 -4.796875 13.121094 -5.207031 12.445312 -6.058594 C 11.769531 -6.914062 11.414062 -7.972656 11.414062 -9.265625 L 11.414062 -20.59375 L 18.476562 -20.59375 C 19.328125 -20.59375 19.742188 -21.007812 19.742188 -21.859375 L 19.742188 -24.332031 C 19.742188 -25.183594 19.328125 -25.59375 18.476562 -25.59375 L 11.414062 -25.59375 L 11.414062 -32.363281 C 11.414062 -33.214844 11.003906 -33.628906 10.148438 -33.628906 L 6.648438 -33.628906 C 5.796875 -33.628906 5.382812 -33.214844 5.382812 -32.363281 L 5.382812 -25.59375 L 2.441406 -25.59375 C 1.589844 -25.59375 1.175781 -25.183594 1.175781 -24.332031 L 1.175781 -21.859375 C 1.175781 -21.007812 1.589844 -20.59375 2.441406 -20.59375 L 5.382812 -20.59375 L 5.382812 -7.648438 C 5.382812 -5.238281 6.121094 -3.234375 7.621094 -1.617188 C 9.121094 0 11.296875 0.792969 14.179688 0.792969 C 16.5625 0.765625 18.886719 0.207031 21.183594 -0.882812 C 21.683594 -1.148438 21.828125 -1.617188 21.59375 -2.265625 Z M 21.566406 -2.234375 "/></g></g></g><g fill="#31b675" fill-opacity="1"><g transform="translate(280.539881, 274.386306)"><g><path d="M 9.53125 -32.363281 C 10.53125 -32.363281 11.386719 -32.714844 12.121094 -33.449219 C 12.855469 -34.1875 13.210938 -35.070312 13.210938 -36.097656 C 13.210938 -37.128906 12.855469 -38.011719 12.121094 -38.746094 C 11.386719 -39.480469 10.53125 -39.835938 9.53125 -39.835938 C 8.472656 -39.835938 7.589844 -39.453125 6.882812 -38.71875 C 6.179688 -37.980469 5.824219 -37.097656 5.824219 -36.097656 C 5.824219 -35.097656 6.179688 -34.214844 6.914062 -33.480469 C 7.648438 -32.746094 8.53125 -32.363281 9.5625 -32.363281 Z M 15.679688 -4.414062 L 12.5625 -5.058594 L 12.5625 -19.769531 L 12.152344 -24.332031 C 12.0625 -24.832031 11.945312 -25.152344 11.796875 -25.332031 C 11.648438 -25.507812 11.355469 -25.59375 10.914062 -25.59375 L 3.972656 -25.59375 C 3.117188 -25.59375 2.707031 -25.183594 2.707031 -24.332031 L 2.707031 -22.417969 C 2.707031 -21.742188 3.03125 -21.328125 3.675781 -21.210938 L 6.5 -20.652344 L 6.5 -5.058594 L 3.382812 -4.414062 C 2.734375 -4.296875 2.414062 -3.882812 2.414062 -3.207031 L 2.414062 -1.265625 C 2.414062 -0.410156 2.824219 0 3.675781 0 L 15.417969 0 C 16.269531 0 16.679688 -0.410156 16.679688 -1.265625 L 16.679688 -3.207031 C 16.679688 -3.882812 16.359375 -4.296875 15.710938 -4.414062 Z M 15.679688 -4.414062 "/></g></g></g><g fill="#31b675" fill-opacity="1"><g transform="translate(298.248278, 274.386306)"><g><path d="M 1.558594 -12.828125 C 1.558594 -9.0625 2.882812 -5.855469 5.53125 -3.207031 C 8.179688 -0.558594 11.472656 0.765625 15.417969 0.765625 C 17.945312 0.765625 20.476562 0.0898438 23.007812 -1.292969 C 23.683594 -1.648438 23.832031 -2.207031 23.449219 -2.972656 L 22.066406 -5.324219 C 21.742188 -6 21.183594 -6.179688 20.386719 -5.824219 C 18.769531 -5.148438 17.238281 -4.796875 15.796875 -4.796875 C 13.414062 -4.796875 11.445312 -5.558594 9.855469 -7.089844 C 8.265625 -8.621094 7.472656 -10.53125 7.472656 -12.828125 C 7.472656 -15.09375 8.265625 -17.003906 9.855469 -18.5625 C 11.445312 -20.125 13.386719 -20.917969 15.679688 -20.917969 C 16.738281 -20.886719 17.800781 -20.683594 18.828125 -20.300781 L 19.359375 -17.710938 C 19.476562 -17.0625 19.886719 -16.738281 20.566406 -16.738281 L 22.507812 -16.738281 C 23.359375 -16.738281 23.769531 -17.152344 23.769531 -18.003906 L 23.769531 -23.390625 C 23.769531 -23.769531 23.535156 -24.09375 23.09375 -24.332031 C 20.683594 -25.714844 18.152344 -26.390625 15.503906 -26.390625 C 11.589844 -26.390625 8.296875 -25.066406 5.648438 -22.449219 C 3 -19.828125 1.675781 -16.621094 1.675781 -12.855469 Z M 1.558594 -12.828125 "/></g></g></g><g fill="#31b675" fill-opacity="1"><g transform="translate(324.310802, 274.386306)"><g><path d="M 12.886719 0.792969 C 16.0625 0.792969 18.683594 0.03125 20.742188 -1.472656 C 22.800781 -2.972656 23.769531 -4.941406 23.652344 -7.382812 C 23.566406 -9.296875 22.769531 -10.886719 21.269531 -12.152344 C 19.769531 -13.414062 18.121094 -14.296875 16.359375 -14.769531 C 14.59375 -15.238281 12.972656 -15.828125 11.53125 -16.535156 C 10.089844 -17.238281 9.355469 -18.035156 9.355469 -18.917969 C 9.355469 -19.652344 9.765625 -20.242188 10.589844 -20.710938 C 11.414062 -21.183594 12.386719 -21.386719 13.535156 -21.359375 C 14.769531 -21.359375 16.121094 -21.09375 17.621094 -20.566406 L 18.035156 -18.300781 C 18.152344 -17.621094 18.5625 -17.269531 19.242188 -17.269531 L 21.183594 -17.269531 C 22.035156 -17.269531 22.449219 -17.679688 22.449219 -18.535156 L 22.449219 -23.832031 C 22.449219 -24.125 22.152344 -24.417969 21.59375 -24.683594 C 19.210938 -25.683594 16.59375 -26.214844 13.710938 -26.300781 C 10.972656 -26.390625 8.621094 -25.742188 6.679688 -24.359375 C 4.738281 -22.976562 3.765625 -21.066406 3.796875 -18.652344 C 3.824219 -17.035156 4.324219 -15.652344 5.296875 -14.535156 C 6.265625 -13.414062 7.441406 -12.5625 8.824219 -12.003906 C 10.207031 -11.445312 11.589844 -10.945312 12.945312 -10.503906 C 14.296875 -10.0625 15.445312 -9.5625 16.386719 -8.972656 C 17.328125 -8.382812 17.769531 -7.707031 17.742188 -6.941406 C 17.769531 -6.058594 17.269531 -5.355469 16.210938 -4.796875 C 15.152344 -4.238281 13.945312 -3.972656 12.5625 -4 C 10.828125 -4 9.265625 -4.296875 7.882812 -4.855469 L 7.53125 -7.265625 C 7.414062 -7.914062 7.003906 -8.238281 6.324219 -8.238281 L 4.414062 -8.238281 C 3.558594 -8.238281 3.148438 -7.824219 3.148438 -6.972656 L 3.148438 -1.914062 C 3.117188 -1.5 3.382812 -1.148438 3.914062 -0.882812 C 6.707031 0.324219 9.648438 0.941406 12.710938 0.941406 Z M 12.886719 0.792969 "/></g></g></g></svg>